<svg width="25" height="26" viewBox="0 0 25 26" fill="none" xmlns="http://www.w3.org/2000/svg">
<path fill-rule="evenodd" clip-rule="evenodd" d="M21.322 3.64451C18.9758 1.29555 15.8555 0.00137759 12.5314 0C5.68167 0 0.106993 5.57452 0.104238 12.4261C0.10332 14.6163 0.675481 16.7543 1.76302 18.6389L0 25.0784L6.58782 23.3503C8.40303 24.3404 10.4466 24.8622 12.5263 24.8629H12.5315C19.3805 24.8629 24.9558 19.2879 24.9584 12.436C24.9597 9.1154 23.6683 5.99331 21.322 3.64451ZM12.5314 22.7642H12.5271C10.6738 22.7634 8.85611 22.2653 7.27003 21.3244L6.89303 21.1005L2.98372 22.126L4.02717 18.3145L3.7815 17.9237C2.74754 16.2792 2.20155 14.3784 2.20247 12.4268C2.20461 6.73201 6.83823 2.09884 12.5355 2.09884C15.2944 2.09976 17.8878 3.17551 19.8378 5.12787C21.7879 7.08023 22.8612 9.67532 22.8603 12.4353C22.8578 18.1305 18.2245 22.7642 12.5314 22.7642ZM16.0752 14.0181C16.3599 14.1219 17.8866 14.8728 18.197 15.0283C18.2579 15.0589 18.3149 15.0864 18.3676 15.1119C18.5837 15.2163 18.7297 15.2869 18.7919 15.391C18.8697 15.5206 18.8697 16.1422 18.611 16.8676C18.352 17.5928 17.1117 18.2548 16.5151 18.3441C15.98 18.424 15.3033 18.4573 14.5594 18.221C14.1083 18.0779 13.53 17.887 12.7891 17.5668C9.87839 16.31 7.9111 13.4888 7.53924 12.9555C7.51318 12.9181 7.49495 12.892 7.48479 12.8784L7.482 12.8747C7.31678 12.6541 6.21694 11.1858 6.21694 9.66628C6.21694 8.23607 6.91929 7.4865 7.24268 7.14138C7.26487 7.11769 7.28528 7.09591 7.30355 7.07595C7.58826 6.76491 7.9247 6.68731 8.13164 6.68731C8.33874 6.68731 8.54584 6.68915 8.72676 6.69818C8.74904 6.69929 8.7722 6.69915 8.79615 6.69901C8.97719 6.69795 9.20272 6.69662 9.42551 7.23115C9.51056 7.43563 9.63479 7.73811 9.76598 8.05755C10.0338 8.70967 10.3306 9.43251 10.3826 9.53679C10.4604 9.69215 10.5123 9.87354 10.4087 10.0808C10.3052 10.2879 9.96859 10.7255 9.63246 11.1429C9.61808 11.1607 9.60324 11.1784 9.58842 11.196C9.46117 11.3472 9.33419 11.498 9.49623 11.7766C9.67746 12.0873 10.3006 13.1042 11.2236 13.9275C12.2162 14.8128 13.0788 15.1869 13.5158 15.3765C13.601 15.4134 13.67 15.4434 13.7207 15.4687C14.0313 15.6242 14.2122 15.5982 14.3934 15.391C14.5747 15.1839 15.1696 14.4844 15.3767 14.1736C15.5835 13.8629 15.7908 13.9145 16.0752 14.0181Z" fill="white"/>
</svg>
