<svg width="70" height="70" viewBox="0 0 70 70" fill="none" xmlns="http://www.w3.org/2000/svg">
<path fill-rule="evenodd" clip-rule="evenodd" d="M35 46.7578C38.0155 46.7578 40.4688 49.2111 40.4688 52.2266C40.4688 55.242 38.0155 57.6953 35 57.6953C31.9845 57.6953 29.5312 55.242 29.5312 52.2266C29.5312 49.2111 31.9845 46.7578 35 46.7578ZM32.2656 52.2266C32.2656 53.7343 33.4923 54.9609 35 54.9609C36.5077 54.9609 37.7344 53.7343 37.7344 52.2266C37.7344 50.7188 36.5077 49.4922 35 49.4922C33.4923 49.4922 32.2656 50.7188 32.2656 52.2266Z" fill="#202F44"/>
<path fill-rule="evenodd" clip-rule="evenodd" d="M25.4297 67.2656C25.4297 61.9886 29.7229 57.6953 35 57.6953C40.2771 57.6953 44.5703 61.9886 44.5703 67.2656V68.6328C44.5703 69.3878 43.9581 70 43.2031 70H26.7969C26.0419 70 25.4297 69.3878 25.4297 68.6328V67.2656ZM35 60.4297C31.2307 60.4297 28.1641 63.4963 28.1641 67.2656H41.8359C41.8359 63.4963 38.7693 60.4297 35 60.4297Z" fill="#202F44"/>
<path fill-rule="evenodd" clip-rule="evenodd" d="M9.57031 46.7578C12.5858 46.7578 15.0391 49.2111 15.0391 52.2266C15.0391 55.242 12.5858 57.6953 9.57031 57.6953C6.55484 57.6953 4.10156 55.242 4.10156 52.2266C4.10156 49.2111 6.55484 46.7578 9.57031 46.7578ZM6.83594 52.2266C6.83594 53.7343 8.06258 54.9609 9.57031 54.9609C11.078 54.9609 12.3047 53.7343 12.3047 52.2266C12.3047 50.7188 11.078 49.4922 9.57031 49.4922C8.06258 49.4922 6.83594 50.7188 6.83594 52.2266Z" fill="#202F44"/>
<path fill-rule="evenodd" clip-rule="evenodd" d="M19.1406 68.6328C19.1406 69.3878 18.5284 70 17.7734 70H1.36719C0.612227 70 0 69.3878 0 68.6328V67.2656C0 61.9886 4.29324 57.6953 9.57031 57.6953C14.8474 57.6953 19.1406 61.9886 19.1406 67.2656V68.6328ZM16.4062 67.2656C16.4062 63.4963 13.3396 60.4297 9.57031 60.4297C5.80098 60.4297 2.73438 63.4963 2.73438 67.2656H16.4062Z" fill="#202F44"/>
<path fill-rule="evenodd" clip-rule="evenodd" d="M60.4297 46.7578C63.4452 46.7578 65.8984 49.2111 65.8984 52.2266C65.8984 55.242 63.4452 57.6953 60.4297 57.6953C57.4142 57.6953 54.9609 55.242 54.9609 52.2266C54.9609 49.2111 57.4142 46.7578 60.4297 46.7578ZM57.6953 52.2266C57.6953 53.7343 58.922 54.9609 60.4297 54.9609C61.9374 54.9609 63.1641 53.7343 63.1641 52.2266C63.1641 50.7188 61.9374 49.4922 60.4297 49.4922C58.922 49.4922 57.6953 50.7188 57.6953 52.2266Z" fill="#202F44"/>
<path fill-rule="evenodd" clip-rule="evenodd" d="M50.8594 67.2656C50.8594 61.9886 55.1526 57.6953 60.4297 57.6953C65.7068 57.6953 70 61.9886 70 67.2656V68.6328C70 69.3878 69.3878 70 68.6328 70H52.2266C51.4716 70 50.8594 69.3878 50.8594 68.6328V67.2656ZM60.4297 60.4297C56.6604 60.4297 53.5938 63.4963 53.5938 67.2656H67.2656C67.2656 63.4963 64.199 60.4297 60.4297 60.4297Z" fill="#202F44"/>
<path fill-rule="evenodd" clip-rule="evenodd" d="M40.4688 14.4922C40.4688 17.5077 38.0155 19.9609 35 19.9609C31.9845 19.9609 29.5312 17.5077 29.5312 14.4922C29.5312 11.4767 31.9845 9.02344 35 9.02344C38.0155 9.02344 40.4688 11.4767 40.4688 14.4922ZM37.7344 14.4922C37.7344 12.9845 36.5077 11.7578 35 11.7578C33.4923 11.7578 32.2656 12.9845 32.2656 14.4922C32.2656 15.9999 33.4923 17.2266 35 17.2266C36.5077 17.2266 37.7344 15.9999 37.7344 14.4922Z" fill="#202F44"/>
<path fill-rule="evenodd" clip-rule="evenodd" d="M25.4297 30.8984V29.5312C25.4297 24.2542 29.7229 19.9609 35 19.9609C40.2771 19.9609 44.5703 24.2542 44.5703 29.5312V30.8984C44.5703 31.6534 43.9581 32.2656 43.2031 32.2656H26.7969C26.0419 32.2656 25.4297 31.6534 25.4297 30.8984ZM41.8359 29.5312C41.8359 25.7619 38.7693 22.6953 35 22.6953C31.2307 22.6953 28.1641 25.7619 28.1641 29.5312H41.8359Z" fill="#202F44"/>
<path d="M28.8477 0H6.28906C5.5341 0 4.92188 0.612227 4.92188 1.36719C4.92188 2.12215 5.5341 2.73438 6.28906 2.73438H9.02344V39.1016C9.02344 39.8565 9.63566 40.4688 10.3906 40.4688H59.6094C60.3643 40.4688 60.9766 39.8565 60.9766 39.1016V2.73438H63.7109C64.4659 2.73438 65.0781 2.12215 65.0781 1.36719C65.0781 0.612227 64.4659 0 63.7109 0H41.1523C40.3974 0 39.7852 0.612227 39.7852 1.36719C39.7852 2.12215 40.3974 2.73438 41.1523 2.73438H58.2422V37.7344H11.7578V2.73438H28.8477C29.6026 2.73438 30.2148 2.12215 30.2148 1.36719C30.2148 0.612227 29.6026 0 28.8477 0Z" fill="#202F44"/>
<circle cx="35" cy="1.36719" r="1.36719" fill="#202F44"/>
</svg>
