<svg width="70" height="60" viewBox="0 0 70 60" fill="none" xmlns="http://www.w3.org/2000/svg">
<path d="M20.6445 35.4546C21.3996 35.4546 22.0117 34.8441 22.0117 34.0909V25.1103L23.7794 26.8733C24.3132 27.4058 25.1789 27.4058 25.713 26.8733C26.2469 26.3408 26.2469 25.4774 25.713 24.9448L21.6114 20.8538C21.0775 20.3213 20.2118 20.3213 19.6778 20.8538L15.5762 24.9448C15.0423 25.4773 15.0423 26.3407 15.5762 26.8733C16.1101 27.4058 16.9758 27.4058 17.5098 26.8733L19.2773 25.1103V34.0909C19.2773 34.8441 19.8894 35.4546 20.6445 35.4546Z" fill="#202F44"/>
<path fill-rule="evenodd" clip-rule="evenodd" d="M54.8242 21.8182V50.4546C54.8242 51.2077 54.2121 51.8182 53.457 51.8182H16.543C15.7879 51.8182 15.1758 51.2077 15.1758 50.4546V42.2728C15.1758 41.5196 15.7879 40.9091 16.543 40.9091H27.4805V32.0455C27.4805 31.2924 28.0926 30.6819 28.8477 30.6819H39.7852V21.8182C39.7852 21.0651 40.3972 20.4546 41.1523 20.4546H53.457C54.2121 20.4546 54.8242 21.0651 54.8242 21.8182ZM17.9102 49.091H27.4805V43.6364H17.9102V49.091ZM39.7852 49.091H30.2148V33.4091H39.7852V49.091ZM42.5195 49.091H52.0898V23.1819H42.5195V49.091Z" fill="#202F44"/>
<path fill-rule="evenodd" clip-rule="evenodd" d="M28.8477 60H1.36719C0.61209 60 0 59.3895 0 58.6364V1.36364C0 0.6105 0.61209 0 1.36719 0H68.6328C69.3879 0 70 0.6105 70 1.36364V58.6364C70 59.3895 69.3879 60 68.6328 60H41.1523C40.3972 60 39.7852 59.3895 39.7852 58.6364C39.7852 57.8832 40.3972 57.2727 41.1523 57.2727H67.2656V15H2.73438V57.2727H28.8477C29.6028 57.2727 30.2148 57.8832 30.2148 58.6364C30.2148 59.3895 29.6028 60 28.8477 60ZM41.8359 2.72727H2.73438V12.2727H67.2656V2.72727H60.9766V5.45455C60.9766 6.20768 60.3645 6.81818 59.6094 6.81818C58.8543 6.81818 58.2422 6.20768 58.2422 5.45455V2.72727H52.7734V5.45455C52.7734 6.20768 52.1613 6.81818 51.4062 6.81818C50.6512 6.81818 50.0391 6.20768 50.0391 5.45455V2.72727H44.5703V5.45455C44.5703 6.20768 43.9582 6.81818 43.2031 6.81818C42.448 6.81818 41.8359 6.20768 41.8359 5.45455V2.72727Z" fill="#202F44"/>
<ellipse cx="35" cy="58.6363" rx="1.36719" ry="1.36364" fill="#202F44"/>
</svg>
