<svg width="70" height="60" viewBox="0 0 70 60" fill="none" xmlns="http://www.w3.org/2000/svg">
<ellipse cx="43.2031" cy="13.6363" rx="1.36719" ry="1.36364" fill="#202F44"/>
<ellipse cx="35" cy="13.6363" rx="1.36719" ry="1.36364" fill="#202F44"/>
<ellipse cx="26.7969" cy="13.6363" rx="1.36719" ry="1.36364" fill="#202F44"/>
<path fill-rule="evenodd" clip-rule="evenodd" d="M68.6328 49.0909H63.8477V13.6364C63.8477 12.8832 63.2354 12.2727 62.4805 12.2727H52.7734V5.45455C52.7734 2.44691 50.3202 0 47.3047 0H22.6953C19.6798 0 17.2266 2.44691 17.2266 5.45455V12.2727H7.51953C6.76443 12.2727 6.15234 12.8832 6.15234 13.6364V49.0909H1.36719C0.61209 49.0909 0 49.7014 0 50.4545C0 55.7179 4.29324 60 9.57031 60H28.8477C29.6028 60 30.2148 59.3895 30.2148 58.6364C30.2148 57.8832 29.6028 57.2727 28.8477 57.2727H9.57031C6.2691 57.2727 3.50697 54.9265 2.87164 51.8168H67.1282C66.4932 54.9265 63.7309 57.2727 60.4297 57.2727H41.1523C40.3974 57.2727 39.7852 57.8832 39.7852 58.6364C39.7852 59.3895 40.3974 60 41.1523 60H60.4297C65.7068 60 70 55.7179 70 50.4545C70 49.7014 69.3878 49.0909 68.6328 49.0909ZM19.9609 5.45455C19.9609 3.95073 21.1876 2.72727 22.6953 2.72727H47.3047C48.8124 2.72727 50.0391 3.95073 50.0391 5.45455V21.8182C50.0391 23.322 48.8124 24.5455 47.3047 24.5455H39.1016C38.5837 24.5455 38.1104 24.8373 37.8787 25.2993L35 31.0417L32.1213 25.2993C31.8896 24.8373 31.4163 24.5455 30.8984 24.5455H22.6953C21.1876 24.5455 19.9609 23.322 19.9609 21.8182V5.45455ZM8.88672 15V49.0909H61.1133V15H52.7734V21.8182C52.7734 24.8258 50.3202 27.2727 47.3047 27.2727H39.9466L36.2228 34.7007C35.9912 35.1627 35.5179 35.4545 35 35.4545C34.4821 35.4545 34.0088 35.1627 33.7772 34.7007L30.0535 27.2727H22.6953C19.6798 27.2727 17.2266 24.8258 17.2266 21.8182V15H8.88672Z" fill="#202F44"/>
<ellipse cx="35" cy="58.6363" rx="1.36719" ry="1.36364" fill="#202F44"/>
</svg>
