<svg width="65" height="70" viewBox="0 0 65 70" fill="none" xmlns="http://www.w3.org/2000/svg">
<path fill-rule="evenodd" clip-rule="evenodd" d="M36.5795 59.0625C39.095 59.0625 41.2164 60.7887 41.8355 63.1245C46.9169 62.7047 51.5041 58.6672 53.0416 53.3557C52.005 53.2764 50.9646 53.0269 49.9596 52.5852L46.2213 50.9417C45.5332 50.6393 45.2192 49.8332 45.5201 49.1414L53.5774 30.6128V28.8477C53.5774 23.6865 51.7699 18.3565 48.8038 14.6136L46.6011 16.3856C46.0507 16.8283 45.2548 16.7748 44.7679 16.2619C41.5092 12.8285 37.1523 10.9375 32.5 10.9375C27.8476 10.9375 23.4908 12.8285 20.2323 16.2617C19.7444 16.7758 18.9482 16.8272 18.3989 16.3855L16.1961 14.6135C13.2301 18.3564 11.4226 23.6864 11.4226 28.8477V30.6126L19.48 49.1415C19.7809 49.8333 19.467 50.6393 18.7789 50.9418L15.0407 52.5852C10.2166 54.705 4.61105 52.4926 2.50576 47.6499L0.871241 43.8916C-1.23052 39.0555 0.971597 33.4022 5.77996 31.289L8.70292 30.004V28.8477C8.70292 23.0917 10.7359 17.1247 14.0733 12.9058L12.0103 11.2462C11.3992 10.7546 11.3259 9.84539 11.8516 9.26133C17.1494 3.37559 24.6754 0 32.5 0C34.2955 0 36.0928 0.174863 37.8417 0.519668C38.5786 0.665 39.059 1.38346 38.9145 2.12434C38.7699 2.86535 38.0552 3.34797 37.3183 3.20291C35.7414 2.89201 34.1202 2.73438 32.5 2.73438C25.9218 2.73438 19.5751 5.38234 14.8699 10.045L19.1543 13.4915C22.8177 10.0719 27.5109 8.20312 32.5 8.20312C37.4889 8.20312 42.1821 10.0719 45.8455 13.4911L50.1301 10.0445C49.4023 9.32244 48.6309 8.64336 47.8257 8.01637C47.232 7.55398 47.1235 6.69525 47.5835 6.09834C48.0432 5.50129 48.8975 5.39232 49.4912 5.85471C50.8028 6.87613 52.0333 8.02225 53.1484 9.26119C53.6734 9.84484 53.6015 10.754 52.9897 11.2461L50.9267 12.9057C54.2641 17.1248 56.2971 23.0917 56.2971 28.8477V30.004L59.2202 31.289C64.0285 33.402 66.2305 39.0554 64.1288 43.8912L62.4941 47.65C61.2417 50.5308 58.7388 52.4799 55.9031 53.1386C54.388 59.8449 48.6793 65.4132 41.8539 65.8678C41.2591 68.2392 39.1202 70 36.5795 70C33.5802 70 31.1402 67.5467 31.1402 64.5312C31.1402 61.5158 33.5802 59.0625 36.5795 59.0625ZM33.8598 64.5312C33.8598 66.039 35.0799 67.2656 36.5795 67.2656C38.0791 67.2656 39.2992 66.039 39.2992 64.5312C39.2992 63.0235 38.0791 61.7969 36.5795 61.7969C35.0799 61.7969 33.8598 63.0235 33.8598 64.5312ZM16.4432 48.9841L13.9512 50.0797C10.5086 51.5926 6.50272 50.0168 4.99765 46.5546L3.36327 42.7965C1.86188 39.3421 3.43466 35.3038 6.86933 33.7946L9.36163 32.6989L16.4432 48.9841ZM48.5566 48.984L51.0489 50.0797C54.4843 51.5893 58.5008 50.0082 60.0021 46.5546L61.6367 42.7961C63.1378 39.3419 61.5652 35.3038 58.1308 33.7944L55.6384 32.6987L48.5566 48.984Z" fill="#202F44"/>
<ellipse cx="43.3786" cy="3.82812" rx="1.35983" ry="1.36719" fill="#202F44"/>
</svg>
