<svg width="66" height="70" viewBox="0 0 66 70" fill="none" xmlns="http://www.w3.org/2000/svg">
<path fill-rule="evenodd" clip-rule="evenodd" d="M25.7727 25.4297H33.9545C34.7075 25.4297 35.3182 26.0418 35.3182 26.7969V35C35.3182 35.755 34.7075 36.3672 33.9545 36.3672H25.7727C25.0196 36.3672 24.4091 35.755 24.4091 35V26.7969C24.4091 26.0419 25.0196 25.4297 25.7727 25.4297ZM27.1364 33.6328H32.5909V28.1641H27.1364V33.6328Z" fill="#202F44"/>
<path fill-rule="evenodd" clip-rule="evenodd" d="M51.6818 41.8359H64.6364C65.3894 41.8359 66 42.448 65.9997 43.2031V68.6328C65.9997 69.3878 65.3891 70 64.6361 70H35.9997C35.2467 70 34.6361 69.3878 34.6361 68.6328V56.875H9.40882C8.65569 56.875 8.04519 56.2628 8.04519 55.5078V30.0453L7.52319 30.4349C6.94651 30.8651 6.13596 30.773 5.67028 30.2241L0.324825 23.9241C-0.183266 23.3256 -0.0833114 22.4225 0.539461 21.9489L29.0395 0.277657C29.5275 -0.0932611 30.2022 -0.0927143 30.6896 0.279297L39.9792 7.37022C40.5784 7.82754 40.6943 8.68531 40.2381 9.28619C39.7821 9.88666 38.9264 10.0033 38.3271 9.54568L29.862 3.08422L3.33682 23.2538L6.91978 27.4766L29.049 10.9498C29.5324 10.5887 30.1949 10.5887 30.6783 10.9498L52.7969 27.469L56.2946 23.2608L48.088 16.9966C47.4888 16.5393 47.3729 15.6815 47.8291 15.0806C48.2851 14.48 49.1407 14.3635 49.7401 14.8211L59.0805 21.9507C59.6981 22.422 59.799 23.3156 59.3021 23.9136L54.0657 30.2136C53.6044 30.7688 52.7871 30.8705 52.2038 30.4351L51.6818 30.0454V41.8359ZM53.0455 50.039V44.5703H47.5909V50.039H53.0455ZM34.6364 43.2031V54.1406H10.7727V28.0096L29.8636 13.7512L48.9546 28.0096V41.8359H36C35.2469 41.8359 34.6364 42.448 34.6364 43.2031ZM37.3636 67.2656H63.2727V44.5703H55.7727V51.4062C55.7727 52.1612 55.1621 52.7734 54.4091 52.7734H46.2273C45.4743 52.7734 44.8636 52.1612 44.8636 51.4062V44.5703H37.3636V67.2656Z" fill="#202F44"/>
<ellipse cx="44.0455" cy="12.168" rx="1.36364" ry="1.36719" fill="#202F44"/>
</svg>
