<svg width="70" height="52" viewBox="0 0 70 52" fill="none" xmlns="http://www.w3.org/2000/svg">
<circle cx="43.2031" cy="9.57031" r="1.36719" fill="#202F44"/>
<circle cx="35" cy="9.57031" r="1.36719" fill="#202F44"/>
<circle cx="26.7969" cy="9.57031" r="1.36719" fill="#202F44"/>
<path fill-rule="evenodd" clip-rule="evenodd" d="M35 28.8477C38.0155 28.8477 40.4688 31.3009 40.4688 34.3164C40.4688 37.3319 38.0155 39.7852 35 39.7852C31.9845 39.7852 29.5312 37.3319 29.5312 34.3164C29.5312 31.3009 31.9845 28.8477 35 28.8477ZM32.2656 34.3164C32.2656 35.8241 33.4923 37.0508 35 37.0508C36.5077 37.0508 37.7344 35.8241 37.7344 34.3164C37.7344 32.8087 36.5077 31.582 35 31.582C33.4923 31.582 32.2656 32.8087 32.2656 34.3164Z" fill="#202F44"/>
<path fill-rule="evenodd" clip-rule="evenodd" d="M25.4297 50.5859V49.3555C25.4297 44.0784 29.7229 39.7852 35 39.7852C40.2771 39.7852 44.5703 44.0784 44.5703 49.3555V50.5859C44.5703 51.3409 43.9581 51.9531 43.2031 51.9531H26.7969C26.0419 51.9531 25.4297 51.3409 25.4297 50.5859ZM41.8346 49.2188C41.7613 45.5124 38.7235 42.5195 35 42.5195C31.2765 42.5195 28.2387 45.5124 28.1654 49.2188H41.8346Z" fill="#202F44"/>
<path fill-rule="evenodd" clip-rule="evenodd" d="M9.57031 28.8477C12.5858 28.8477 15.0391 31.3009 15.0391 34.3164C15.0391 37.3319 12.5858 39.7852 9.57031 39.7852C6.55484 39.7852 4.10156 37.3319 4.10156 34.3164C4.10156 31.3009 6.55484 28.8477 9.57031 28.8477ZM6.83594 34.3164C6.83594 35.8241 8.06258 37.0508 9.57031 37.0508C11.078 37.0508 12.3047 35.8241 12.3047 34.3164C12.3047 32.8087 11.078 31.582 9.57031 31.582C8.06258 31.582 6.83594 32.8087 6.83594 34.3164Z" fill="#202F44"/>
<path fill-rule="evenodd" clip-rule="evenodd" d="M19.1406 50.5859C19.1406 51.3409 18.5284 51.9531 17.7734 51.9531H1.36719C0.612227 51.9531 0 51.3409 0 50.5859V49.3555C0 44.0784 4.29324 39.7852 9.57031 39.7852C14.8474 39.7852 19.1406 44.0784 19.1406 49.3555V50.5859ZM16.4049 49.2188C16.3316 45.5124 13.2938 42.5195 9.57031 42.5195C5.84678 42.5195 2.80902 45.5124 2.73574 49.2188H16.4049Z" fill="#202F44"/>
<path fill-rule="evenodd" clip-rule="evenodd" d="M60.4297 28.8477C63.4452 28.8477 65.8984 31.3009 65.8984 34.3164C65.8984 37.3319 63.4452 39.7852 60.4297 39.7852C57.4142 39.7852 54.9609 37.3319 54.9609 34.3164C54.9609 31.3009 57.4142 28.8477 60.4297 28.8477ZM57.6953 34.3164C57.6953 35.8241 58.922 37.0508 60.4297 37.0508C61.9374 37.0508 63.1641 35.8241 63.1641 34.3164C63.1641 32.8087 61.9374 31.582 60.4297 31.582C58.922 31.582 57.6953 32.8087 57.6953 34.3164Z" fill="#202F44"/>
<path fill-rule="evenodd" clip-rule="evenodd" d="M50.8594 49.3555C50.8594 44.0784 55.1526 39.7852 60.4297 39.7852C65.7068 39.7852 70 44.0784 70 49.3555V50.5859C70 51.3409 69.3878 51.9531 68.6328 51.9531H52.2266C51.4716 51.9531 50.8594 51.3409 50.8594 50.5859V49.3555ZM60.4297 42.5195C56.7062 42.5195 53.6684 45.5124 53.5951 49.2188H67.2643C67.191 45.5124 64.1532 42.5195 60.4297 42.5195Z" fill="#202F44"/>
<path d="M64.5312 0H41.1523C40.3974 0 39.7852 0.612227 39.7852 1.36719C39.7852 2.12215 40.3974 2.73438 41.1523 2.73438H64.5312C66.039 2.73438 67.2656 3.96102 67.2656 5.46875V13.6719C67.2656 15.1796 66.039 16.4062 64.5312 16.4062H60.4297C59.6747 16.4062 59.0625 17.0185 59.0625 17.7734V19.6628L52.838 16.5505C52.6482 16.4556 52.4389 16.4062 52.2266 16.4062H39.1016C38.739 16.4062 38.3913 16.5504 38.1348 16.8067L35 19.9414L31.8652 16.8066C31.6087 16.5504 31.261 16.4062 30.8984 16.4062H18.5938C18.3814 16.4062 18.1721 16.4556 17.9823 16.5506L11.7578 19.6628V17.7734C11.7578 17.0185 11.1456 16.4062 10.3906 16.4062H5.46875C3.96102 16.4062 2.73438 15.1796 2.73438 13.6719V5.46875C2.73438 3.96102 3.96102 2.73438 5.46875 2.73438H28.8477C29.6026 2.73438 30.2148 2.12215 30.2148 1.36719C30.2148 0.612227 29.6026 0 28.8477 0H5.46875C2.45328 0 0 2.45328 0 5.46875V13.6719C0 16.6873 2.45328 19.1406 5.46875 19.1406H9.02344V21.875C9.02344 22.3489 9.26885 22.789 9.67189 23.0381C10.0749 23.287 10.5782 23.3096 11.002 23.0979L18.9164 19.1406H30.332L34.0331 22.8417C34.5672 23.3755 35.4326 23.3755 35.9667 22.8417L39.668 19.1406H51.9039L59.8184 23.0978C60.2411 23.3093 60.7448 23.2874 61.1486 23.0379C61.5516 22.7888 61.797 22.3487 61.797 21.8749V19.1405H64.5314C67.5469 19.1405 70.0001 16.6872 70.0001 13.6717V5.46861C70 2.45328 67.5467 0 64.5312 0Z" fill="#202F44"/>
<circle cx="35" cy="1.36719" r="1.36719" fill="#202F44"/>
</svg>
