<svg width="70" height="73" viewBox="0 0 70 73" fill="none" xmlns="http://www.w3.org/2000/svg">
<path fill-rule="evenodd" clip-rule="evenodd" d="M60.0621 0.697204L69.3685 11.4662C70.309 12.5548 70.1847 14.2031 69.0911 15.1406L62.0319 21.1925C61.1232 21.9718 59.749 21.8745 58.9616 20.9693L58.6457 20.6061C56.9183 22.003 55.1046 23.2479 53.241 24.3128C50.6502 25.7934 49.4713 25.9608 44.3271 26.5083C42.788 26.6772 41.5782 26.3313 37.3949 25.1349C36.5627 24.8969 35.6129 24.6253 34.5194 24.3173C32.9376 23.8721 32.1635 22.8227 31.8803 21.7684L31.6636 21.8572C31.52 22.1445 31.3416 22.4124 31.1286 22.6566L25.8759 28.6825C24.4884 30.2742 22.0551 30.4482 20.4523 29.0707C19.6274 28.3618 19.1638 27.3711 19.1248 26.3375C18.0772 26.1708 17.1795 25.5706 16.5569 24.5624C16.551 24.5527 16.5452 24.5429 16.5395 24.5331C15.0865 22.0007 16.8883 19.9089 18.1819 19.0721C18.2171 19.0492 30.1402 12.2735 32.1474 11.1328L32.1517 11.1304L32.1654 11.1225L32.4326 10.9707C34.9061 9.38621 37.4961 9.751 38.4971 9.98198C38.5317 9.98996 42.7103 11.1671 43.8073 11.4762L43.8089 11.4766L44.0683 11.5497C45.9982 12.0932 47.9089 11.7676 49.1783 10.679L49.6567 10.2689L49.3663 9.93494C48.9864 9.49804 48.8006 8.94043 48.8428 8.36466C48.8851 7.78903 49.151 7.26396 49.5911 6.88677L57.0069 0.529176C57.8764 -0.216457 59.1941 -0.16871 60.0069 0.63819C60.0261 0.657063 60.0444 0.676782 60.0621 0.697204ZM21.253 26.1275C21.1943 27.7108 23.2028 28.5201 24.267 27.2994L27.5396 23.5453L21.253 26.1275ZM52.1797 22.4814C49.9754 23.7411 49.2334 23.8608 44.1225 24.4049C42.9715 24.5275 42.0252 24.2573 38.096 23.1354C37.2472 22.893 36.2593 22.6109 35.1001 22.2845C34.2642 22.0491 34.0459 21.6053 33.9545 21.2921C33.8341 20.8796 33.9038 20.4848 33.9087 20.4567C33.9089 20.4556 33.909 20.4551 33.909 20.4551C33.9096 20.4526 33.9099 20.4501 33.9102 20.4477C33.9104 20.4463 33.9106 20.4449 33.9108 20.4435C33.911 20.4424 33.9112 20.4413 33.9114 20.4403C33.9122 20.4364 33.9132 20.4326 33.9142 20.4288C33.9155 20.4236 33.9168 20.4184 33.9178 20.4131C33.9183 20.4104 33.985 20.128 34.1684 19.8823C34.327 19.6699 34.5658 19.463 35.1369 19.5413C36.9536 19.7895 41.0348 20.332 41.8498 20.4403L41.9927 20.4593C42.5767 20.5366 43.1107 20.1304 43.1884 19.5521C43.2663 18.9738 42.8573 18.4423 42.2748 18.3649C42.2266 18.3586 37.4363 17.7227 35.427 17.4482C33.5458 17.1908 32.4374 18.3442 32.0006 19.4338L30.4487 20.0692C26.897 21.5232 24.6073 22.4641 23.1242 23.0735C20.4947 24.154 20.4009 24.1926 20.3042 24.2018C20.3007 24.2021 20.2971 24.2024 20.2934 24.2028C20.2589 24.2057 20.2129 24.2095 20.0521 24.2556C18.341 24.4941 17.1686 22.2832 19.3203 20.858L33.5136 12.7911L33.5166 12.7896C33.5338 12.7797 33.5508 12.7694 33.5674 12.7587C35.3446 11.61 37.2363 11.8641 37.9917 12.0349L43.4877 13.5828C46.1085 14.3206 48.756 13.833 50.5691 12.2786L51.0474 11.8685L57.2552 19.0068C55.6306 20.3165 53.9273 21.4827 52.1797 22.4814ZM67.6547 13.5805L67.7005 13.5411C67.9086 13.3628 67.9322 13.0492 67.7532 12.8423L58.4889 2.12199C58.4765 2.1141 58.4621 2.11016 58.4477 2.11016C58.4298 2.11016 58.4119 2.11622 58.3976 2.12847H58.3975L50.9817 8.48621C50.9182 8.54072 60.5653 19.6018 60.606 19.6048C60.6343 19.6081 67.048 14.1014 67.6547 13.5805Z" fill="#202F44"/>
<path fill-rule="evenodd" clip-rule="evenodd" d="M50.8853 46.6708C50.7575 43.2588 46.4443 41.6875 44.1602 44.3223L38.9272 50.3578C38.7151 50.6024 38.5375 50.8705 38.3948 51.1581L38.1788 51.247C37.8968 50.1912 37.1256 49.1401 35.5499 48.6942C34.4414 48.3803 33.4866 48.1065 32.657 47.8686C28.2857 46.6148 27.3918 46.3584 25.8004 46.4979L25.78 46.4998C20.6556 47.0483 19.481 47.216 16.9001 48.6987C15.0436 49.7654 13.2368 51.0123 11.5162 52.4115L11.2015 52.0477C10.4198 51.1442 9.04782 51.0439 8.14302 51.8241L0.727788 58.2152C-0.155398 58.9762 -0.247673 60.3073 0.521758 61.183L10.2945 72.3004C11.026 73.1325 12.2987 73.2368 13.1293 72.5355L13.1489 72.5189L20.5362 66.1514C21.4432 65.3694 21.5437 64.004 20.7603 63.0983L20.471 62.7639L20.9475 62.3533C22.2122 61.263 24.1157 60.9371 26.0379 61.4812L30.9531 62.8729C31.5161 63.0319 32.1024 62.7059 32.2622 62.1438C32.4219 61.5815 32.0947 60.9965 31.5316 60.8371L26.6163 59.4454C24.0055 58.7064 21.3683 59.1947 19.5621 60.7515L19.0856 61.1621L12.9016 54.013C14.5198 52.7012 16.2165 51.5331 17.9575 50.5327C20.1552 49.27 20.8931 49.151 25.9955 48.6051C27.1864 48.5015 27.9316 48.7152 32.0031 49.8828L32.0228 49.8884C32.5655 50.044 33.0344 50.1731 33.4402 50.2848C35.4038 50.8254 35.8909 50.9595 36.1127 51.7238C36.2327 52.137 36.1633 52.5324 36.1584 52.5605C36.1582 52.5616 36.1581 52.5621 36.1581 52.5621C36.106 52.7895 36.008 52.9901 35.8998 53.136C35.7417 53.3486 35.5028 53.5556 34.9352 53.4775C33.1252 53.2289 29.0596 52.6856 28.2478 52.5771L28.1056 52.558C27.5239 52.481 26.992 52.8873 26.9145 53.4666C26.8369 54.0458 27.2443 54.5782 27.8245 54.6556C27.8725 54.662 32.6444 55.2989 34.6461 55.5738C36.3017 55.8015 37.5291 54.9122 38.0586 53.5854C38.1114 53.5637 48.7324 49.1939 48.7834 49.1685C49.9029 48.601 50.9604 48.4712 51.6273 49.5399C52.3947 50.9089 51.0338 51.9305 50.691 52.1587L36.5521 60.2379L36.5333 60.2489C36.5221 60.2555 36.5094 60.2634 36.4987 60.2705C36.2648 60.4224 36.0151 60.558 35.7564 60.6732C35.2219 60.9115 34.9821 61.5374 35.2209 62.0708C35.4596 62.6046 36.087 62.8439 36.6209 62.6053C36.973 62.4483 37.3142 62.264 37.63 62.0601L37.66 62.0429C38.381 61.631 51.7852 53.9726 51.8247 53.9469C55.6689 51.4483 53.8198 47.1396 50.8853 46.6708ZM19.1559 64.4813C19.1598 64.4858 19.169 64.4964 19.1676 64.5164C19.1653 64.5456 12.7252 70.0892 11.9225 70.7801L11.8408 70.8504L2.12944 59.803L9.52856 53.4253C9.53308 53.4215 9.54523 53.4115 9.5636 53.4137C9.58381 53.4151 9.593 53.4259 9.59681 53.4304L19.1559 64.4813ZM45.7632 45.7069L42.5032 49.4671L48.7655 46.8809C48.8245 45.2744 46.81 44.4994 45.7632 45.7069Z" fill="#202F44"/>
<path d="M33.6814 32.6472C33.8865 33.0046 34.4921 33.4836 35.208 33.4664C35.8002 33.4527 36.3485 33.1041 36.6454 32.6319C38.0578 30.3903 41.0126 30.8955 41.8947 32.936C42.1325 33.4859 42.7768 33.7417 43.3339 33.5067C43.8908 33.2717 44.1494 32.6352 43.9116 32.0852C42.4141 28.6223 37.6391 27.8378 35.1637 30.9507C32.1627 27.1528 25.9955 29.3104 26 34.0827C26.0053 39.1001 30.4035 42.9375 34.5181 44.8558C34.9416 45.0533 35.4237 45.0432 35.8257 44.8545C38.7841 43.4681 41.9291 41.008 43.3846 38.0372C43.6485 37.4988 43.4203 36.851 42.8753 36.5905C42.3299 36.3296 41.6744 36.5552 41.4107 37.0936C40.2247 39.5141 37.5981 41.5514 35.1686 42.7604C31.7463 41.0888 28.1973 37.9782 28.1932 34.0805C28.1906 31.1412 32.1837 30.0443 33.6814 32.6472Z" fill="#202F44"/>
</svg>
