<svg width="70" height="61" viewBox="0 0 70 61" fill="none" xmlns="http://www.w3.org/2000/svg">
<path fill-rule="evenodd" clip-rule="evenodd" d="M35 47.8515C40.7749 47.8515 46.6211 45.9731 46.6211 42.3828V34.6123L52.0898 32.1818V46.4843C52.0898 47.2393 52.7021 47.8515 53.457 47.8515C54.212 47.8515 54.8242 47.2393 54.8242 46.4843V30.0781C54.8242 29.4719 54.4454 29.01 53.9871 28.8175L35.5552 20.6256C35.2017 20.4684 34.7982 20.4684 34.4446 20.6256L15.9876 28.8287C15.4941 29.0482 15.1758 29.5378 15.1758 30.0781C15.1758 30.6182 15.4939 31.108 15.9876 31.3274L23.3789 34.6123V42.3828C23.3789 45.9731 29.225 47.8515 35 47.8515ZM43.8867 42.3828C43.8867 43.2005 40.8632 45.1171 35 45.1171C29.1368 45.1171 26.1133 43.2005 26.1133 42.3828V35.8278L34.4446 39.5307C34.6214 39.6091 34.8108 39.6484 35 39.6484C35.1892 39.6484 35.3786 39.6091 35.5554 39.5307L43.8867 35.8276V42.3828ZM35 23.3711L19.9091 30.0782L35 36.7851L50.0909 30.0782L35 23.3711Z" fill="#202F44"/>
<path fill-rule="evenodd" clip-rule="evenodd" d="M1.36719 0H68.6328C69.3878 0 70 0.61209 70 1.36719V58.7891C70 59.544 69.3878 60.1562 68.6328 60.1562H41.1523C40.3974 60.1562 39.7852 59.544 39.7852 58.7891C39.7852 58.0341 40.3974 57.4219 41.1523 57.4219H67.2656V15.0391H2.73438V57.4219H28.8477C29.6028 57.4219 30.2148 58.0341 30.2148 58.7891C30.2148 59.544 29.6028 60.1562 28.8477 60.1562H1.36719C0.61209 60.1562 0 59.544 0 58.7891V1.36719C0 0.61209 0.61209 0 1.36719 0ZM2.73438 12.3047H67.2656V2.73438H60.9766V5.46875C60.9766 6.22371 60.3643 6.83594 59.6094 6.83594C58.8544 6.83594 58.2422 6.22371 58.2422 5.46875V2.73438H52.7734V5.46875C52.7734 6.22371 52.1612 6.83594 51.4062 6.83594C50.6513 6.83594 50.0391 6.22371 50.0391 5.46875V2.73438H44.5703V5.46875C44.5703 6.22371 43.9581 6.83594 43.2031 6.83594C42.4482 6.83594 41.8359 6.22371 41.8359 5.46875V2.73438H2.73438V12.3047Z" fill="#202F44"/>
<circle cx="35" cy="58.7891" r="1.36719" fill="#202F44"/>
</svg>
