<svg width="27" height="18" viewBox="0 0 27 18" fill="none" xmlns="http://www.w3.org/2000/svg">
<path fill-rule="evenodd" clip-rule="evenodd" d="M11.2744 12.8444V5.14209L17.961 8.99325L11.2744 12.8444ZM26.1501 2.81447C25.8541 1.71394 24.9864 0.846402 23.886 0.550045C21.8757 0 13.8345 0 13.8345 0C13.8345 0 5.79362 0 3.78337 0.529192C2.70417 0.825228 1.8153 1.7141 1.51927 2.81447C0.990234 4.82456 0.990234 8.99325 0.990234 8.99325C0.990234 8.99325 0.990234 13.183 1.51927 15.1721C1.81562 16.2724 2.683 17.14 3.78353 17.4363C5.8148 17.9865 13.8348 17.9865 13.8348 17.9865C13.8348 17.9865 21.8757 17.9865 23.886 17.4573C24.9865 17.1612 25.8541 16.2936 26.1504 15.1932C26.6792 13.183 26.6792 9.01442 26.6792 9.01442C26.6792 9.01442 26.7004 4.82456 26.1501 2.81447Z" fill="#202F44"/>
</svg>
