<svg width="25" height="25" viewBox="0 0 25 25" fill="none" xmlns="http://www.w3.org/2000/svg">
<path fill-rule="evenodd" clip-rule="evenodd" d="M24.8903 7.33433C24.8319 6.00883 24.6175 5.09756 24.3104 4.30794C23.9937 3.46977 23.5064 2.71936 22.8679 2.09554C22.2441 1.46201 21.4887 0.969729 20.6602 0.657914C19.866 0.350859 18.9595 0.13651 17.634 0.0780682C16.2986 0.0146774 15.8747 1.94173e-05 12.4878 1.94173e-05C9.10082 1.94173e-05 8.67688 0.0146774 7.34643 0.0731188C6.02094 0.13156 5.10967 0.346099 4.32023 0.652965C3.48187 0.969729 2.73146 1.45706 2.10764 2.09554C1.47411 2.71936 0.982025 3.47472 0.67002 4.30318C0.362964 5.09756 0.148615 6.00388 0.0901739 7.32938C0.026783 8.66477 0.012125 9.08871 0.012125 12.4757C0.012125 15.8626 0.026783 16.2865 0.0852244 17.617C0.143666 18.9425 0.358205 19.8537 0.665261 20.6434C0.982025 21.4815 1.47411 22.232 2.10764 22.8558C2.73146 23.4893 3.48682 23.9816 4.31528 24.2934C5.10967 24.6004 6.01599 24.8148 7.34167 24.8732C8.67193 24.9319 9.09606 24.9463 12.483 24.9463C15.8699 24.9463 16.2939 24.9319 17.6243 24.8732C18.9498 24.8148 19.8611 24.6004 20.6505 24.2934C22.3271 23.6452 23.6526 22.3197 24.3007 20.6434C24.6076 19.849 24.8221 18.9425 24.8806 17.617C24.939 16.2865 24.9537 15.8626 24.9537 12.4757C24.9537 9.08871 24.9487 8.66477 24.8903 7.33433ZM22.6438 17.5195C22.5901 18.7378 22.3855 19.3957 22.2149 19.8343C21.7958 20.9211 20.9332 21.7836 19.8464 22.2028C19.4078 22.3734 18.7452 22.578 17.5316 22.6315C16.2158 22.6902 15.8212 22.7046 12.4927 22.7046C9.16421 22.7046 8.76464 22.6902 7.45361 22.6315C6.23528 22.578 5.57739 22.3734 5.13879 22.2028C4.59797 22.0029 4.10569 21.6862 3.70612 21.2719C3.29189 20.8674 2.97513 20.3801 2.77524 19.8393C2.60468 19.4007 2.40004 18.7378 2.34655 17.5245C2.28792 16.2087 2.27345 15.8139 2.27345 12.4854C2.27345 9.15686 2.28792 8.75729 2.34655 7.44645C2.40004 6.22813 2.60468 5.57023 2.77524 5.13164C2.97513 4.59062 3.29189 4.09854 3.71107 3.69877C4.1154 3.28454 4.60273 2.96778 5.14374 2.76809C5.58234 2.59752 6.24518 2.39288 7.45856 2.3392C8.77435 2.28076 9.16916 2.2661 12.4975 2.2661C15.8309 2.2661 16.2255 2.28076 17.5366 2.3392C18.7549 2.39288 19.4128 2.59752 19.8514 2.76809C20.3922 2.96778 20.8845 3.28454 21.2841 3.69877C21.6983 4.1033 22.015 4.59062 22.2149 5.13164C22.3855 5.57023 22.5901 6.23289 22.6438 7.44645C22.7023 8.76224 22.7169 9.15686 22.7169 12.4854C22.7169 15.8139 22.7023 16.2037 22.6438 17.5195ZM20.6458 5.8139C20.6458 6.64007 19.9759 7.30996 19.1495 7.30996C18.3233 7.30996 17.6535 6.64007 17.6535 5.8139C17.6535 4.98753 18.3233 4.31783 19.1495 4.31783C19.9759 4.31783 20.6458 4.98753 20.6458 5.8139ZM6.07938 12.4757C6.07938 8.93756 8.94986 6.06727 12.4878 6.06727C16.0258 6.06727 18.8961 8.93756 18.8961 12.4757C18.8961 16.0137 16.0258 18.884 12.4878 18.884C8.94986 18.884 6.07938 16.0137 6.07938 12.4757ZM8.3308 12.4757C8.3308 14.771 10.1926 16.6326 12.4878 16.6326C14.7832 16.6326 16.6447 14.771 16.6447 12.4757C16.6447 10.1803 14.7832 8.3187 12.4878 8.3187C10.1926 8.3187 8.3308 10.1803 8.3308 12.4757Z" fill="#202F44"/>
</svg>
