<svg width="120" height="43" viewBox="0 0 120 43" fill="none" xmlns="http://www.w3.org/2000/svg">
<path fill-rule="evenodd" clip-rule="evenodd" d="M34.6317 25.6636C34.7217 25.5732 34.7566 25.4847 34.7566 25.3463V19.9078C34.7566 19.7697 34.7217 19.6809 34.6307 19.59C34.5419 19.5012 34.4528 19.4659 34.3148 19.4659H26.8026V25.7882H34.3148C34.4531 25.7882 34.5419 25.7533 34.6317 25.6636Z" fill="#FEFEFE"/>
<path fill-rule="evenodd" clip-rule="evenodd" d="M35.6064 30.0712H26.8026V36.3598H35.6064C35.7445 36.3598 35.8333 36.3246 35.9233 36.2348C36.0131 36.1448 36.0483 36.056 36.0483 35.9179V30.5133C36.0483 30.3753 36.0131 30.2862 35.9227 30.1958C35.8333 30.1067 35.7442 30.0712 35.6064 30.0712Z" fill="#FEFEFE"/>
<path fill-rule="evenodd" clip-rule="evenodd" d="M15.2284 6.73596H6.42458V13.0582H15.2284C15.3664 13.0582 15.4555 13.023 15.5456 12.9333C15.635 12.8435 15.6702 12.7544 15.6702 12.6167V7.1778C15.6702 7.03977 15.635 6.95065 15.5443 6.85966C15.4555 6.77148 15.3664 6.73596 15.2284 6.73596Z" fill="#FEFEFE"/>
<mask id="mask0" mask-type="alpha" maskUnits="userSpaceOnUse" x="0" y="0" width="43" height="43">
<path fill-rule="evenodd" clip-rule="evenodd" d="M0 0.311523H42.4728V42.7842H0V0.311523Z" fill="white"/>
</mask>
<g mask="url(#mask0)">
<path fill-rule="evenodd" clip-rule="evenodd" d="M40.3312 35.918C40.3312 37.2114 39.8644 38.3344 38.944 39.2552C38.0226 40.1763 36.8999 40.643 35.6065 40.643H22.5195V18.6161C22.5195 17.6832 22.8607 16.8696 23.5335 16.1966C24.2056 15.5239 25.0198 15.183 25.9527 15.183H34.3146C35.6077 15.183 36.7304 15.6497 37.6515 16.5702C38.5726 17.4919 39.0396 18.6149 39.0396 19.9077V25.3123C39.0396 25.7984 38.9399 26.3178 38.7361 26.8858C39.0477 27.1498 39.34 27.4959 39.6186 27.9297C40.0916 28.6672 40.3312 29.5363 40.3312 30.5134V35.918ZM19.9532 12.6167C19.9532 13.9079 19.4936 15.0291 18.5869 15.9495C17.6774 16.8731 16.5475 17.3414 15.2282 17.3414H6.42445V27.9128H2.14159V5.88626C2.14159 4.92748 2.48465 4.10549 3.16175 3.44305C3.83417 2.78589 4.64587 2.45311 5.57473 2.45311H15.2282C16.5444 2.45311 17.673 2.91427 18.5825 3.82381C19.4921 4.73305 19.9532 5.86164 19.9532 7.17781V12.6167ZM41.4208 26.7727C41.3152 26.6085 41.208 26.4527 41.098 26.305C41.1538 25.9694 41.1809 25.6401 41.1809 25.3123V19.9077C41.1809 18.0531 40.4845 16.3755 39.1652 15.0552C38.7795 14.6701 38.3632 14.3376 37.9204 14.0606L19.3463 1.65699C18.17 0.773618 16.7644 0.311523 15.2282 0.311523H5.57442C4.08843 0.311523 2.73673 0.864603 1.66422 1.91249C0.575203 2.97784 0 4.35165 0 5.88626V27.9128C0 28.622 0.344623 29.2505 0.87558 29.6403L0.879942 29.6431L0.87558 29.6497L21.4411 42.4936C21.758 42.6784 22.1263 42.7843 22.5195 42.7843H35.6065C37.462 42.7843 39.1397 42.0876 40.4583 40.7692C41.7761 39.4512 42.4728 37.7739 42.4728 35.918V30.5134C42.4728 29.1203 42.1191 27.8621 41.4208 26.7727Z" fill="#FEFEFE"/>
</g>
<path fill-rule="evenodd" clip-rule="evenodd" d="M57.0888 19.7331H52.628V16.5299H57.0888C57.1586 16.5299 57.2037 16.5476 57.2489 16.5925C57.2947 16.6386 57.3125 16.6835 57.3125 16.7536V19.5093C57.3125 19.5791 57.2947 19.6243 57.2495 19.6698C57.2037 19.7153 57.1589 19.7331 57.0888 19.7331ZM57.0888 14.3596H52.1974C51.7268 14.3596 51.3159 14.5285 50.975 14.8613C50.6319 15.1969 50.458 15.6135 50.458 16.0992V27.2596H52.628V21.903H57.0888C57.7571 21.903 58.3295 21.6659 58.7904 21.1979C59.2497 20.7317 59.4827 20.1634 59.4827 19.5093V16.7536C59.4827 16.0868 59.249 15.515 58.7882 15.0542C58.3273 14.5933 57.7556 14.3596 57.0888 14.3596Z" fill="#FEFEFE"/>
<path fill-rule="evenodd" clip-rule="evenodd" d="M64.236 16.5298H68.7139C68.7554 16.5298 68.8024 16.5385 68.8657 16.6015C68.9289 16.665 68.9377 16.7121 68.9377 16.7535V19.5093C68.9377 19.575 68.9196 19.6183 68.8725 19.6632C68.8083 19.7246 68.7585 19.733 68.7139 19.733H64.236V16.5298ZM70.3984 21.1978C70.8577 20.7317 71.0908 20.1636 71.0908 19.5093V16.7535C71.0908 16.0998 70.8577 15.5318 70.3984 15.065C69.9373 14.597 69.3705 14.3599 68.7139 14.3599H62.0661V27.2596H64.236V21.9032H66.9703L69.0025 27.2596H71.3167L69.2764 21.8363C69.7032 21.7359 70.079 21.5222 70.3984 21.1978Z" fill="#FEFEFE"/>
<path fill-rule="evenodd" clip-rule="evenodd" d="M80.8689 24.211C80.8689 24.4637 80.787 24.6612 80.6109 24.8332C80.4324 25.008 80.2352 25.0894 79.9906 25.0894H76.7051C76.4605 25.0894 76.2633 25.008 76.0847 24.8332C75.9087 24.6612 75.8267 24.4637 75.8267 24.211V17.4079C75.8267 17.1559 75.9087 16.958 76.0847 16.786C76.2636 16.6112 76.4605 16.5299 76.7051 16.5299H79.9906C80.2352 16.5299 80.4321 16.6112 80.6109 16.7857C80.787 16.958 80.8689 17.1556 80.8689 17.4079V24.211ZM79.9906 14.3596H76.7051C75.866 14.3596 75.1431 14.6606 74.556 15.2539C73.9709 15.8456 73.6739 16.5704 73.6739 17.4079V24.211C73.6739 25.0489 73.9709 25.7736 74.556 26.3653C75.1425 26.9586 75.8657 27.2596 76.7051 27.2596H79.9906C80.8291 27.2596 81.5544 26.9592 82.1465 26.3669C82.7388 25.7749 83.0389 25.0495 83.0389 24.211V17.4079C83.0389 16.5701 82.7388 15.8447 82.1465 15.252C81.5538 14.66 80.8287 14.3596 79.9906 14.3596Z" fill="#FEFEFE"/>
<path fill-rule="evenodd" clip-rule="evenodd" d="M86.1394 14.8614C85.7963 15.197 85.6224 15.6136 85.6224 16.0994V27.2597H87.7924V21.9031H92.7009V19.7332H87.7924V16.5297H94.0099V14.3597H87.3618C86.8912 14.3597 86.4803 14.5286 86.1394 14.8614Z" fill="#FEFEFE"/>
<path fill-rule="evenodd" clip-rule="evenodd" d="M52.6281 37.428H57.0889C57.1587 37.428 57.2036 37.4458 57.249 37.491C57.2948 37.5368 57.3126 37.582 57.3126 37.6521V40.3904C57.3126 40.4602 57.2948 40.5053 57.2494 40.5508C57.2036 40.5963 57.1587 40.6141 57.0889 40.6141H52.6281V37.428ZM56.6583 35.034C56.6583 35.1042 56.6405 35.149 56.5947 35.1948C56.5492 35.24 56.5043 35.2578 56.4342 35.2578H52.6281V32.0546H56.4342C56.504 32.0546 56.5492 32.0723 56.5944 32.1175C56.6405 32.1633 56.6583 32.2085 56.6583 32.2783V35.034ZM58.6746 35.814C58.7777 35.5261 58.8282 35.2631 58.8282 35.0169V32.2783C58.8282 31.6233 58.5917 31.0544 58.1249 30.5873C57.6582 30.1208 57.0895 29.8846 56.4342 29.8846H52.1975C51.7248 29.8846 51.3122 30.0573 50.9717 30.3982C50.6308 30.739 50.4582 31.1513 50.4582 31.624V42.7843H57.0889C57.7442 42.7843 58.3131 42.5478 58.7799 42.0814C59.2464 41.6146 59.4826 41.0456 59.4826 40.3904V37.6521C59.4826 37.1569 59.3613 36.7167 59.1217 36.3427C58.9806 36.1231 58.8323 35.948 58.6746 35.814Z" fill="#FEFEFE"/>
<path fill-rule="evenodd" clip-rule="evenodd" d="M62.597 30.3982C62.2562 30.739 62.0832 31.1513 62.0832 31.624V41.0447C62.0832 41.5311 62.2574 41.9474 62.6005 42.2827C62.9404 42.6154 63.352 42.7843 63.8229 42.7843H70.4536V40.6141H64.2535V37.428H69.1446V35.2578H64.2535V32.0546H70.4536V29.8846H63.8229C63.3502 29.8846 62.9376 30.0573 62.597 30.3982Z" fill="#FEFEFE"/>
<path fill-rule="evenodd" clip-rule="evenodd" d="M79.2488 37.0319H76.833L78.047 32.9042L79.2488 37.0319ZM77.9797 29.8845C77.4771 29.8845 76.7829 30.0892 76.3317 31.0642L72.8926 42.7842H75.1507L76.2011 39.2018H79.8792L80.9299 42.7842H83.1867L79.4221 29.8845H77.9797Z" fill="#FEFEFE"/>
<path fill-rule="evenodd" clip-rule="evenodd" d="M91.844 40.3904C91.844 40.4561 91.8257 40.4994 91.7786 40.5443C91.7147 40.6057 91.6646 40.6141 91.62 40.6141H88.0205C87.9398 40.6141 87.898 40.5892 87.8597 40.5502C87.8217 40.5128 87.7967 40.4711 87.7967 40.3904V29.8846H85.6265V40.3904C85.6265 41.0459 85.8633 41.6149 86.3295 42.0814C86.7959 42.5478 87.3649 42.7843 88.0205 42.7843H91.62C92.2756 42.7843 92.8443 42.5478 93.311 42.0814C93.7775 41.6146 94.014 41.0459 94.014 40.3904V29.8846H91.844V40.3904Z" fill="#FEFEFE"/>
<path fill-rule="evenodd" clip-rule="evenodd" d="M96.5972 32.0546H100.532C100.527 32.1213 100.524 32.1904 100.524 32.2612V42.7843H102.694V32.2783C102.694 32.2085 102.712 32.1633 102.757 32.1178C102.803 32.0723 102.848 32.0546 102.918 32.0546H106.621V29.8846H96.5972V32.0546Z" fill="#FEFEFE"/>
<mask id="mask1" mask-type="alpha" maskUnits="userSpaceOnUse" x="108" y="29" width="12" height="14">
<path fill-rule="evenodd" clip-rule="evenodd" d="M108.853 29.8845H119.577V42.7842H108.853V29.8845Z" fill="white"/>
</mask>
<g mask="url(#mask1)">
<path fill-rule="evenodd" clip-rule="evenodd" d="M117.01 29.8845L114.216 34.3129L111.422 29.8845H108.853L113.151 36.6857C113.137 36.8203 113.131 36.9537 113.131 37.0836V42.7842H115.301V37.0836C115.301 36.7979 115.38 36.5361 115.545 36.28L119.577 29.8845H117.01Z" fill="#FEFEFE"/>
</g>
</svg>
